# xmcd
#
# Track frame offsets: 
#        182
#        23642
#        46087
#        67072
#        88292
#        119247
#        140352
#        160615
#        183957
#
# Disc length: 2819 seconds
#
# Revision: 1
# Processed by: cddbd v1.5.2PL0 Copyright (c) Steve Scherf et al.
# Submitted via: ExactAudioCopy v0.95b4
#
DISCID=780b0109
DTITLE=Abdul Raheem - Che-Che
DYEAR=1995
DGENRE=Jazz
TTITLE0=Che-Che
TTITLE1=Georgi
TTITLE2=Kilikilbo
TTITLE3=African Queen
TTITLE4=Mother
TTITLE5=Tayaman
TTITLE6=Alaiye
TTITLE7=Gege Iyawo
TTITLE8=Che-Che (Instrumental)
EXTD=
EXTT0=
EXTT1=
EXTT2=
EXTT3=
EXTT4=
EXTT5=
EXTT6=
EXTT7=
EXTT8=
PLAYORDER=
